<?xml version="1.0" standalone="no"?> 
<!DOCTYPE svg PUBLIC "-//W3C//DTD SVG 1.1//EN" "http://www.w3.org/Graphics/SVG/1.1/DTD/svg11.dtd" >
<svg xmlns="http://www.w3.org/2000/svg">
<defs>
  <font id="iconfont" horiz-adv-x="60">
    <font-face font-family="iconfont"
      units-per-em="1001" ascent="1001"
      descent="0" />
    <missing-glyph horiz-adv-x="0" />
    <glyph glyph-name="more"
      unicode="&#xEA01;"
      horiz-adv-x="1001" d=" M57.2 0L0 128.7000000000001L700.7 500.5L0 872.3L57.2 1001L1001 500.5z" />
    <glyph glyph-name="add"
      unicode="&#xEA02;"
      horiz-adv-x="1001" d=" M556.1231351351352 556.1231351351352H1001V444.903918918919H556.1231351351352V556.1231351351352z M0 556.1231351351352H444.8768648648649V444.903918918919H0V556.1231351351352z M556.1231351351352 556.1231351351352L556.1231351351352 1001L444.8768648648649 1001L444.8768648648649 556.1231351351352L444.8768648648649 444.8768648648649L444.8768648648649 0L556.1231351351352 0L556.1231351351352 444.8768648648649z" />
    <glyph glyph-name="all"
      unicode="&#xEA03;"
      horiz-adv-x="1001" d=" M500.5 934.2666666666667C740.74 934.2666666666667 934.2666666666667 740.74 934.2666666666667 500.5S740.74 66.7333333333334 500.5 66.7333333333334S66.7333333333333 260.26 66.7333333333333 500.5S260.26 934.2666666666667 500.5 934.2666666666667M500.5 1001C223.5566666666667 1001 0 777.4433333333334 0 500.5S223.5566666666667 0 500.5 0S1001 223.5566666666666 1001 500.5S777.4433333333334 1001 500.5 1001L500.5 1001z M690.6899999999999 400.4C680.68 400.4 674.0066666666667 403.7366666666667 667.3333333333334 410.41L500.5 577.2433333333333L333.6666666666667 410.41C320.32 397.0633333333334 300.3 397.0633333333334 286.9533333333333 410.41S273.6066666666667 443.7766666666667 286.9533333333333 457.1233333333333L453.7866666666666 623.9566666666667C480.48 650.65 520.52 650.65 547.2133333333333 623.9566666666667L714.0466666666666 457.1233333333333C727.3933333333332 443.7766666666667 727.3933333333332 423.7566666666667 714.0466666666666 410.41C707.3733333333333 403.7366666666667 700.7 400.4 690.6899999999999 400.4z" />
    <glyph glyph-name="pass"
      unicode="&#xEA04;"
      horiz-adv-x="1001" d=" M500.5 934.2576486486486C740.74 934.2576486486486 934.2576486486486 740.74 934.2576486486486 500.5S740.7399999999999 66.7423513513513 500.5 66.7423513513513S66.7423513513514 260.2600000000001 66.7423513513514 500.5S260.26 934.2576486486486 500.5 934.2576486486486M500.5 1001C223.5476486486487 1001 0 777.4523513513514 0 500.5C0 223.5747027027028 223.5476486486487 0 500.5 0C777.4252972972972 0 1001 223.5747027027028 1001 500.5C1001 777.4523513513514 777.4252972972972 1001 500.5 1001L500.5 1001z M433.7576486486487 328.760864864865L281.1727837837838 481.3727837837838C270.5946486486487 491.9509189189189 270.5946486486487 509.0490810810811 281.1727837837838 519.6272162162163S308.8490810810811 530.2053513513513 319.4272162162162 519.6272162162163L433.7576486486487 405.2697297297298L681.5727837837837 653.0848648648649C692.1509189189189 663.663 709.249081081081 663.663 719.8272162162162 653.0848648648649S730.4053513513514 625.4085675675676 719.8272162162162 614.8304324324324L433.7576486486487 328.760864864865z" />
    <glyph glyph-name="arrow"
      unicode="&#xEA05;"
      horiz-adv-x="770.4026992830029" d=" M390.5208772669759 250.2288907633912L7.0927035006326 690.4409110080135C-7.1138127372417 704.6263180092789 -7.1138127372417 725.9466469843949 7.0927035006326 740.1320539856601C21.299219738507 754.3174609869254 42.5984394770139 754.3174609869254 56.7838464782792 740.1320539856601L383.4070645297343 363.8176929565584L710.0513918177983 740.1531632222691C724.2367988190636 754.3385702235344 745.5571277941797 754.3385702235344 759.7425347954448 740.1531632222691C773.9701602699282 725.9466469843949 773.9701602699282 704.6474272458879 759.7425347954448 690.4620202446226L390.5208772669759 250.2288907633912z" />
    <glyph glyph-name="news"
      unicode="&#xEA07;"
      horiz-adv-x="1001" d=" M200.2 600.6C200.2 563.7392171808 230.0815685321513 533.8576486486487 266.9423513513514 533.8576486486487C303.8031341705514 533.8576486486487 333.6847027027028 563.7392171808 333.6847027027028 600.6C333.6847027027028 637.4607828192001 303.8031341705514 667.3423513513513 266.9423513513514 667.3423513513513C230.0815685321513 667.3423513513513 200.2 637.4607828192001 200.2 600.6z M433.7576486486487 600.6C433.7576486486487 563.7392171808 463.6392171808 533.8576486486487 500.5 533.8576486486487C537.3607828192 533.8576486486487 567.2423513513513 563.7392171808 567.2423513513513 600.6C567.2423513513513 637.4607828192001 537.3607828192 667.3423513513513 500.5 667.3423513513513C463.6392171808 667.3423513513513 433.7576486486487 637.4607828192001 433.7576486486487 600.6z M667.3152972972973 600.6C667.3152972972973 563.7392171808 697.1968658294486 533.8576486486487 734.0576486486486 533.8576486486487C770.9184314678486 533.8576486486487 800.8 563.7392171808 800.8 600.6C800.8 637.4607828192001 770.9184314678486 667.3423513513513 734.0576486486486 667.3423513513513C697.1968658294486 667.3423513513513 667.3152972972973 637.4607828192001 667.3152972972973 600.6z M576.4948378378378 59.6000810810812C559.0179189189189 59.6000810810812 540.1882972972974 72.2884324324326 540.1882972972974 100.1000000000001V239.8882972972974H133.4576486486487C81.7573513513514 239.8882972972974 39.6882972972973 281.9844054054056 39.6882972972973 333.6847027027028V867.5423513513514C39.6882972972973 919.2426486486486 81.7573513513513 961.3117027027027 133.4576486486487 961.3117027027027H867.5152972972974C919.2155945945946 961.3117027027027 961.3117027027026 919.2426486486486 961.3117027027026 867.5423513513514V333.6847027027027C961.3117027027026 281.9844054054054 919.2155945945946 239.8882972972974 867.5152972972974 239.8882972972974H778.6427297297298L623.0548648648648 84.3004324324325C606.6871621621622 67.9327297297299 590.9958108108108 59.6000810810812 576.4948378378378 59.6000810810812zM133.4576486486487 907.2035945945946C111.5709189189189 907.2035945945946 93.7964054054054 889.4020270270271 93.7964054054054 867.5423513513514V333.6847027027027C93.7964054054054 311.797972972973 111.597972972973 293.9964054054055 133.4576486486487 293.9964054054055H594.2964054054054V132.0508378378379L756.2419729729729 293.9964054054055H867.5152972972974C889.402027027027 293.9964054054055 907.2035945945946 311.7979729729731 907.2035945945946 333.6847027027027V867.5423513513514C907.2035945945946 889.4290810810811 889.402027027027 907.2035945945946 867.5152972972974 907.2035945945946H133.4576486486487z" />
    <glyph glyph-name="content"
      unicode="&#xEA08;"
      horiz-adv-x="1001" d=" M500.5 934.2666666666667C740.74 934.2666666666667 934.2666666666667 740.74 934.2666666666667 500.5S740.74 66.7333333333334 500.5 66.7333333333334S66.7333333333333 260.26 66.7333333333333 500.5S260.26 934.2666666666667 500.5 934.2666666666667M500.5 1001C223.5566666666667 1001 0 777.4433333333334 0 500.5S223.5566666666667 0 500.5 0S1001 223.5566666666666 1001 500.5S777.4433333333334 1001 500.5 1001L500.5 1001z M430.43 293.6266666666667C420.42 293.6266666666667 410.4100000000001 296.9633333333334 400.4 300.3C380.38 313.6466666666667 367.0333333333334 337.0033333333334 367.0333333333334 367.0333333333333V633.9666666666667C367.0333333333334 663.9966666666667 380.38 687.3533333333332 400.4 700.7C420.42 714.0466666666666 450.45 710.71 473.8066666666667 694.0266666666666L694.0266666666665 563.8966666666666C720.7199999999999 547.2133333333334 734.0666666666666 527.1933333333334 734.0666666666666 500.5C734.0666666666666 477.1433333333333 720.7199999999999 453.7866666666667 694.0266666666665 437.1033333333334L473.8066666666666 306.9733333333335C460.46 296.9633333333333 447.1133333333334 293.6266666666667 430.43 293.6266666666667zM433.7666666666667 640.64C433.7666666666667 640.64 433.7666666666667 637.3033333333333 433.7666666666667 633.9666666666667V367.0333333333333C433.7666666666667 363.6966666666666 433.7666666666667 360.36 433.7666666666667 360.36C433.7666666666667 360.36 437.1033333333334 360.36 440.44 363.6966666666667L660.66 493.8266666666668C663.9966666666667 497.1633333333334 667.3333333333334 500.5 667.3333333333334 500.5C667.3333333333334 500.5 663.9966666666667 503.8366666666666 660.6600000000001 507.1733333333333L440.4400000000001 637.3033333333333C437.1033333333334 640.64 437.1033333333334 640.64 433.7666666666667 640.64z" />
    <glyph glyph-name="back"
      unicode="&#xEA09;"
      horiz-adv-x="1001" d=" M437.9375 816.440625V315.9406250000001L78.203125 575.575L437.9375 816.440625M472.346875 907.15625C466.090625 907.15625 456.70625 904.028125 447.321875 897.771875L21.896875 613.1125C-6.25625 594.34375 -6.25625 563.0625 21.896875 541.1656250000001L453.578125 228.353125C462.9625 222.0968750000001 472.346875 218.96875 478.603125 218.96875C494.24375 218.96875 503.6281250000001 231.48125 503.6281250000001 253.3781250000001V869.61875C500.5 891.515625 491.115625 907.15625 472.346875 907.15625L472.346875 907.15625z M969.71875 31.28125C950.95 31.28125 938.4375 43.7937499999999 938.4375 62.5625C938.4375 300.3000000000001 797.671875 631.8812499999999 484.859375 631.8812499999999C466.090625 631.8812499999999 453.578125 644.39375 453.578125 663.1624999999999S466.090625 694.4437499999999 484.859375 694.4437499999999C697.571875 694.4437499999999 1001 497.3718749999999 1001 62.5625C1001 43.7937499999999 985.359375 31.28125 969.71875 31.28125z M966.590625 31.28125C954.078125 31.28125 941.565625 37.5375 938.4375 50.0500000000001C816.4406250000001 369.11875 600.6 416.040625 487.9875 416.040625C469.21875 416.040625 456.70625 428.553125 456.70625 447.321875S469.21875 478.603125 487.9875 478.603125C622.4968749999999 478.603125 866.490625 425.4250000000001 997.871875 75.0749999999999C1004.128125 59.4343749999999 994.7437499999997 40.6656249999999 979.1031249999997 34.409375C972.846875 31.28125 969.71875 31.28125 966.590625 31.28125z" />
    <glyph glyph-name="clear"
      unicode="&#xEA0A;"
      horiz-adv-x="875.8483687555109" d=" M250.2119553650157 1000.9695642920124H625.5755419745203V875.8483687555109H250.2119553650157V1000.9695642920124z M0 813.302988841254H875.8483687555109V688.1817933047524H0V813.302988841254z M62.5453799142571 125.0907598285142H813.3029888412539V0.0304357079876H62.545379914257V125.0907598285143z M62.5453799142571 625.605977682508H187.6665754507586V125.0907598285142H62.5453799142571V625.605977682508z M688.2122290127397 625.605977682508H813.3029888412538V125.0907598285142H688.2122290127397V625.605977682508z M500.5152178539937 625.605977682508H625.5755419745203V187.6970111587461H500.5152178539937V625.6059776825078z M250.2119553650157 625.605977682508H375.3331509015173V187.6970111587461H250.2119553650157V625.6059776825078z" />
    <glyph glyph-name="delete"
      unicode="&#xEA0B;"
      horiz-adv-x="1000.9324834749763" d=" M1001.0337582625116 98.1690273843249L598.6015108593011 500.4662417374882L1000.9662417374882 902.8309726156753L902.7972143531632 1000.9662417374882L500.4324834749764 598.6015108593012L98.0677525967894 1000.8649669499528L-0.0675165250236 902.7296978281398L402.3309726156752 500.5L0 98.1690273843249L98.135269121813 0.0337582625118L500.4662417374881 402.364730878187L902.8984891406986 0.0337582625118z" />
    <glyph glyph-name="right"
      unicode="&#xEA0D;"
      horiz-adv-x="1385.95966021779" d=" M523.593084608764 0L0 454.2576432286794L100.0887624892415 569.8167121954871L508.197694869588 223.2893387718444L1270.4380496201773 1001L1385.95966021779 900.8737791415634z" />
    <glyph glyph-name="cooperate_delete"
      unicode="&#xEA0E;"
      horiz-adv-x="1001" d=" M990.503027027027 881.6104594594594L881.6375135135135 990.5300810810812L500.5 609.3925675675675L113.9246216216216 995.967945945946L5.0320540540541 887.0753783783783L391.6074324324324 500.5L5.0320540540541 113.9246216216217L113.9246216216216 5.0320540540541L500.5 391.6074324324325L881.6375135135135 10.469918918919L990.503027027027 119.3624864864866L609.3655135135135 500.5z" />
    <glyph glyph-name="cover_delete"
      unicode="&#xEA0F;"
      horiz-adv-x="1001" d=" M995.9408918918919 868.5433513513514L861.4822432432431 1003.0561081081082L493.4118378378378 634.9857027027027L132.4295945945946 995.967945945946L-2.0561081081081 861.4822432432433L358.9261351351351 500.5L-2.0561081081081 139.5177567567569L132.4295945945946 5.0320540540541L493.4118378378378 365.9872432432433L861.4822432432431 -2.0561081081081L995.9408918918919 132.4566486486488L627.8975405405405 500.5z" />
    <glyph glyph-name="firstpage"
      unicode="&#xEA10;"
      horiz-adv-x="1084.4219272245696" d=" M521.8683862016775 0L-3.6613483004351 467.1059784322381L521.8683862016775 1001L580.2605789241345 942.5762439301257L121.4241975152929 467.1059784322381L580.2605789241345 66.7564797881062z M1022.3683862016774 0L496.8386516995649 467.1059784322381L1022.3683862016774 1001L1080.7605789241345 942.5762439301257L621.9557608627105 467.1059784322381L1080.7605789241345 66.7564797881062z" />
    <glyph glyph-name="prepage"
      unicode="&#xEA15;"
      horiz-adv-x="583.9219272245696" d=" M525.5297345021127 -5.2710790187299L0 461.8664627609257L525.5297345021127 995.7289209812702L583.9219272245696 937.3367282588132L125.1171091631456 461.8664627609257L583.9219272245696 61.4854007693763z" />
    <glyph glyph-name="rb"
      unicode="&#xEA16;"
      horiz-adv-x="1001" d=" M1001 25.025C1001 11.6783333333334 989.3216666666666 0 975.975 0H25.025C11.6783333333333 0 0 11.6783333333334 0 25.025L0 25.025C0 38.3716666666666 11.6783333333333 50.05 25.025 50.05H975.975C989.3216666666666 50.05 1001 38.3716666666666 1001 25.025L1001 25.025z M975.975 1001C989.3216666666666 1001 1001 989.3216666666668 1001 975.975V25.025C1001 11.6783333333334 989.3216666666666 0 975.975 0L975.975 0C962.6283333333334 0 950.95 11.6783333333334 950.95 25.025V975.975C950.95 989.3216666666668 962.6283333333334 1001 975.975 1001L975.975 1001z" />
    <glyph glyph-name="table_play"
      unicode="&#xEA19;"
      horiz-adv-x="781.3481351351351" d=" M144.5768648648649 978.7615675675676C66.7152972972973 1028.8115675675676 0 995.426864864865 0 900.9V100.0999999999999C0 5.5460810810811 66.7423513513513 -27.8115675675676 144.5768648648649 22.2384324324323L722.9113783783783 405.973135135135C800.8 456.023135135135 800.8 545.0039189189188 722.9113783783783 595.0539189189187L144.5768648648649 978.7615675675676z" />
    <glyph glyph-name="upload_l"
      unicode="&#xEA1A;"
      horiz-adv-x="1001" d=" M1001 536.2384054054055L536.2384054054054 536.2384054054055L536.2384054054054 1001L464.7615945945946 1001L464.7615945945946 536.2384054054055L0 536.2384054054055L0 464.7615945945946L464.7615945945946 464.7615945945946L464.7615945945946 0L536.2384054054054 0L536.2384054054054 464.7615945945946L1001 464.7615945945946z" />
    <glyph glyph-name="upload_s"
      unicode="&#xEA1B;"
      horiz-adv-x="1001" d=" M1001 583.9076486486487L583.9347027027027 583.9076486486487L583.9347027027027 1001L417.0923513513514 1001L417.0923513513514 583.9076486486487L0 583.9076486486487L0 417.0652972972973L417.0923513513514 417.0652972972973L417.0923513513514 0L583.9347027027027 0L583.9347027027027 417.0652972972973L1001 417.0652972972973z" />
    <glyph glyph-name="vision_clear"
      unicode="&#xEA1C;"
      horiz-adv-x="1001" d=" M1003.029054054054 932.2556486486486L932.2556486486488 1003.0561081081082L500.5 571.2734054054054L68.7443513513513 1003.0561081081082L-2.0561081081081 932.2556486486486L429.6995405405405 500.5L-2.0561081081081 68.7443513513513L68.7443513513513 -2.0561081081081L500.5 429.7265945945947L932.2556486486488 -2.0561081081081L1003.029054054054 68.7443513513513L571.2734054054054 500.5z" />
    <glyph glyph-name="scale_l"
      unicode="&#xEA1D;"
      horiz-adv-x="1001" d=" M1001 572.0038648648649L572.0038648648649 572.0038648648649L572.0038648648649 1001L428.9961351351351 1001L428.9961351351351 572.0038648648649L0 572.0038648648649L0 428.9961351351351L428.9961351351351 428.9961351351351L428.9961351351351 0L572.0038648648649 0L572.0038648648649 428.9961351351351L1001 428.9961351351351z" />
    <glyph glyph-name="scale_s"
      unicode="&#xEA1E;"
      horiz-adv-x="1001" d=" M0 572H1001V429H0V572z" />
    <glyph glyph-name="edit"
      unicode="&#xEA1F;"
      horiz-adv-x="1000.9999999999999" d=" M843.4098579040851 562.2504440497337H983.9724689165186V140.5626110124334V2e-13H843.4098579040851H140.5626110124334H0V140.5626110124334V843.3756660746004V983.9382770870338H140.5626110124334H562.2504440497335V843.3756660746004H140.5626110124334V140.5626110124334H843.4098579040851V562.2504440497337zM508.9795737122557 409.6181172291297L1000.9999999999998 901.5701598579042L901.6043516873888 1000.965808170515L409.5839253996448 508.9453818827709L508.9795737122557 409.6181172291297z" />
  </font>
</defs>
</svg>
